<svg width="1079" height="869" viewBox="0 0 1079 869" fill="none" xmlns="http://www.w3.org/2000/svg">
<path d="M921.968 23.736C921.52 23.736 921.064 23.776 920.6 23.856C920.152 23.936 919.744 24.08 919.376 24.288C919.008 24.48 918.704 24.752 918.464 25.104C918.24 25.44 918.128 25.872 918.128 26.4C918.128 27.04 918.296 27.56 918.632 27.96C918.968 28.344 919.376 28.64 919.856 28.848C920.24 29.008 920.648 29.144 921.08 29.256C921.512 29.368 921.952 29.472 922.4 29.568C922.864 29.664 923.312 29.76 923.744 29.856C924.192 29.952 924.624 30.072 925.04 30.216C926.016 30.552 926.792 31.032 927.368 31.656C927.96 32.28 928.256 33.104 928.256 34.128C928.256 35.088 928.088 35.88 927.752 36.504C927.432 37.128 926.992 37.64 926.432 38.04C925.888 38.44 925.248 38.736 924.512 38.928C923.792 39.104 923.024 39.192 922.208 39.192C921.392 39.192 920.608 39.112 919.856 38.952C919.12 38.792 918.448 38.528 917.84 38.16C917.232 37.792 916.712 37.312 916.28 36.72C915.848 36.128 915.544 35.408 915.368 34.56H917.552C917.712 35.104 917.96 35.552 918.296 35.904C918.632 36.256 919.016 36.536 919.448 36.744C919.88 36.952 920.344 37.096 920.84 37.176C921.352 37.256 921.856 37.296 922.352 37.296C922.832 37.296 923.296 37.248 923.744 37.152C924.208 37.04 924.616 36.872 924.968 36.648C925.32 36.424 925.6 36.136 925.808 35.784C926.016 35.432 926.12 35.008 926.12 34.512C926.12 33.76 925.92 33.2 925.52 32.832C925.12 32.464 924.584 32.184 923.912 31.992C923.464 31.848 922.992 31.728 922.496 31.632C922 31.536 921.504 31.432 921.008 31.32C920.512 31.208 920.024 31.08 919.544 30.936C919.064 30.776 918.624 30.592 918.224 30.384C917.584 30.08 917.048 29.616 916.616 28.992C916.184 28.352 915.968 27.552 915.968 26.592C915.968 25.696 916.144 24.944 916.496 24.336C916.848 23.728 917.304 23.24 917.864 22.872C918.424 22.504 919.048 22.24 919.736 22.08C920.44 21.92 921.184 21.84 921.968 21.84C922.608 21.856 923.184 21.912 923.696 22.008C924.224 22.088 924.72 22.24 925.184 22.464C925.904 22.784 926.504 23.264 926.984 23.904C927.464 24.544 927.728 25.368 927.776 26.376H925.736C925.672 25.88 925.52 25.464 925.28 25.128C925.056 24.792 924.776 24.52 924.44 24.312C924.104 24.104 923.72 23.96 923.288 23.88C922.872 23.784 922.432 23.736 921.968 23.736ZM936.832 26.208C937.84 26.208 938.712 26.368 939.448 26.688C940.184 27.008 940.8 27.456 941.296 28.032C941.808 28.608 942.184 29.296 942.424 30.096C942.68 30.88 942.808 31.744 942.808 32.688C942.808 33.632 942.68 34.504 942.424 35.304C942.184 36.088 941.808 36.768 941.296 37.344C940.8 37.904 940.176 38.344 939.424 38.664C938.672 38.984 937.792 39.144 936.784 39.144C935.776 39.144 934.896 38.984 934.144 38.664C933.408 38.344 932.784 37.904 932.272 37.344C931.776 36.768 931.4 36.088 931.144 35.304C930.904 34.504 930.784 33.632 930.784 32.688C930.784 31.744 930.904 30.88 931.144 30.096C931.4 29.296 931.776 28.608 932.272 28.032C932.784 27.456 933.424 27.008 934.192 26.688C934.96 26.368 935.84 26.208 936.832 26.208ZM936.784 37.344C937.472 37.344 938.064 37.224 938.56 36.984C939.072 36.744 939.488 36.416 939.808 36C940.144 35.568 940.384 35.072 940.528 34.512C940.688 33.952 940.768 33.344 940.768 32.688C940.768 32.048 940.688 31.448 940.528 30.888C940.384 30.312 940.144 29.816 939.808 29.4C939.488 28.968 939.072 28.632 938.56 28.392C938.064 28.152 937.472 28.032 936.784 28.032C936.096 28.032 935.504 28.152 935.008 28.392C934.512 28.632 934.096 28.968 933.76 29.4C933.44 29.816 933.2 30.312 933.04 30.888C932.896 31.448 932.824 32.048 932.824 32.688C932.824 33.344 932.896 33.952 933.04 34.512C933.2 35.072 933.44 35.568 933.76 36C934.096 36.416 934.512 36.744 935.008 36.984C935.504 37.224 936.096 37.344 936.784 37.344ZM945.538 39V22.032H947.578V39H945.538ZM951.964 21.72C952.348 21.72 952.676 21.848 952.948 22.104C953.22 22.344 953.356 22.664 953.356 23.064C953.356 23.464 953.22 23.792 952.948 24.048C952.676 24.304 952.348 24.432 951.964 24.432C951.564 24.432 951.236 24.304 950.98 24.048C950.724 23.792 950.596 23.464 950.596 23.064C950.596 22.664 950.724 22.344 950.98 22.104C951.236 21.848 951.564 21.72 951.964 21.72ZM950.956 39V26.352H952.996V39H950.956ZM967.669 39H965.725L965.629 37.104C965.197 37.824 964.597 38.344 963.829 38.664C963.077 38.984 962.285 39.144 961.453 39.144C960.493 39.128 959.661 38.96 958.957 38.64C958.253 38.304 957.677 37.848 957.229 37.272C956.781 36.696 956.445 36.024 956.221 35.256C956.013 34.472 955.909 33.624 955.909 32.712C955.909 31.8 956.021 30.952 956.245 30.168C956.469 29.368 956.813 28.68 957.277 28.104C957.741 27.512 958.325 27.048 959.029 26.712C959.733 26.376 960.573 26.208 961.549 26.208C962.285 26.208 963.029 26.344 963.781 26.616C964.533 26.888 965.149 27.328 965.629 27.936V22.032H967.669V39ZM961.717 28.032C961.029 28.032 960.445 28.16 959.965 28.416C959.485 28.656 959.093 28.984 958.789 29.4C958.501 29.816 958.285 30.312 958.141 30.888C958.013 31.448 957.949 32.064 957.949 32.736C957.949 33.408 958.013 34.016 958.141 34.56C958.269 35.088 958.485 35.56 958.789 35.976C959.093 36.392 959.485 36.728 959.965 36.984C960.445 37.224 961.037 37.344 961.741 37.344C962.557 37.344 963.229 37.152 963.757 36.768C964.285 36.384 964.709 35.904 965.029 35.328C965.253 34.928 965.413 34.496 965.509 34.032C965.605 33.552 965.653 33.08 965.653 32.616C965.653 32.04 965.597 31.512 965.485 31.032C965.389 30.552 965.205 30.104 964.933 29.688C964.613 29.224 964.189 28.832 963.661 28.512C963.133 28.192 962.485 28.032 961.717 28.032ZM972.05 21.72C972.434 21.72 972.762 21.848 973.034 22.104C973.306 22.344 973.442 22.664 973.442 23.064C973.442 23.464 973.306 23.792 973.034 24.048C972.762 24.304 972.434 24.432 972.05 24.432C971.65 24.432 971.322 24.304 971.066 24.048C970.81 23.792 970.682 23.464 970.682 23.064C970.682 22.664 970.81 22.344 971.066 22.104C971.322 21.848 971.65 21.72 972.05 21.72ZM971.042 39V26.352H973.082V39H971.042ZM979.667 26.352H983.555V28.152H979.667V34.728C979.667 35.096 979.683 35.44 979.715 35.76C979.763 36.064 979.843 36.336 979.955 36.576C980.083 36.8 980.259 36.984 980.483 37.128C980.723 37.256 981.043 37.328 981.443 37.344C981.811 37.344 982.131 37.28 982.403 37.152C982.691 37.024 982.931 36.872 983.123 36.696L984.011 38.184C983.595 38.536 983.163 38.784 982.715 38.928C982.267 39.072 981.771 39.144 981.227 39.144C980.539 39.144 979.963 39.048 979.499 38.856C979.035 38.648 978.643 38.352 978.323 37.968C978.051 37.6 977.867 37.168 977.771 36.672C977.675 36.176 977.627 35.616 977.627 34.992V28.152H975.563V26.352H977.627V22.56H979.667V26.352ZM997.103 26.352V39C997.103 40.84 996.623 42.24 995.663 43.2C994.703 44.176 993.335 44.664 991.559 44.664C990.487 44.648 989.519 44.504 988.655 44.232C987.807 43.976 987.023 43.512 986.303 42.84L987.191 41.232C987.815 41.728 988.479 42.12 989.183 42.408C989.903 42.696 990.655 42.84 991.439 42.84C992.095 42.84 992.655 42.736 993.119 42.528C993.583 42.336 993.959 42.056 994.247 41.688C994.551 41.336 994.767 40.912 994.895 40.416C995.039 39.92 995.111 39.384 995.111 38.808V37.296C994.903 37.616 994.639 37.904 994.319 38.16C994.015 38.4 993.679 38.6 993.311 38.76C992.959 38.904 992.575 39.008 992.159 39.072C991.759 39.152 991.351 39.192 990.935 39.192C989.975 39.176 989.175 39.024 988.535 38.736C987.911 38.448 987.407 38.048 987.023 37.536C986.655 37.024 986.391 36.416 986.231 35.712C986.071 34.992 985.991 34.2 985.991 33.336V26.352H988.031V32.76C988.031 33.336 988.063 33.904 988.127 34.464C988.207 35.024 988.359 35.52 988.583 35.952C988.807 36.384 989.135 36.736 989.567 37.008C989.999 37.264 990.575 37.392 991.295 37.392C992.015 37.392 992.623 37.24 993.119 36.936C993.631 36.632 994.023 36.248 994.295 35.784C994.599 35.304 994.799 34.776 994.895 34.2C995.007 33.624 995.063 33.032 995.063 32.424V26.352H997.103Z" fill="#8F8F8F"/>
<circle cx="466" cy="36" r="5" fill="#FF3C00"/>
<path d="M466 56V81.5" stroke="#DADADA"/>
<path d="M919 53V78.5" stroke="#DADADA"/>
<path d="M468.088 114V97.032H474.112C475.872 97.032 477.344 97.392 478.528 98.112C479.712 98.816 480.6 99.808 481.192 101.088C481.8 102.352 482.104 103.832 482.104 105.528C482.104 107.208 481.808 108.688 481.216 109.968C480.624 111.232 479.736 112.224 478.552 112.944C477.368 113.648 475.888 114 474.112 114H468.088ZM470.176 112.104H473.968C475.344 112.104 476.472 111.824 477.352 111.264C478.232 110.704 478.888 109.936 479.32 108.96C479.752 107.968 479.968 106.824 479.968 105.528C479.968 104.264 479.752 103.136 479.32 102.144C478.904 101.152 478.264 100.368 477.4 99.792C476.536 99.216 475.432 98.928 474.088 98.928H470.176V112.104ZM482.529 118.32V116.544H483.393C483.969 116.544 484.409 116.448 484.713 116.256C485.033 116.064 485.249 115.776 485.361 115.392C485.489 115.024 485.553 114.568 485.553 114.024V101.352H487.593V114.24C487.593 115.168 487.457 115.936 487.185 116.544C486.929 117.152 486.513 117.6 485.937 117.888C485.361 118.176 484.593 118.32 483.633 118.32H482.529ZM486.561 99.48C486.145 99.48 485.809 99.352 485.553 99.096C485.313 98.84 485.193 98.512 485.193 98.112C485.193 97.712 485.321 97.392 485.577 97.152C485.833 96.896 486.161 96.768 486.561 96.768C486.929 96.768 487.249 96.896 487.521 97.152C487.809 97.408 487.953 97.728 487.953 98.112C487.953 98.512 487.817 98.84 487.545 99.096C487.273 99.352 486.945 99.48 486.561 99.48ZM495.031 114.144C494.455 114.144 493.895 114.072 493.351 113.928C492.823 113.768 492.343 113.536 491.911 113.232C491.495 112.912 491.159 112.52 490.903 112.056C490.663 111.576 490.543 111.024 490.543 110.4C490.543 109.68 490.671 109.072 490.927 108.576C491.199 108.08 491.559 107.688 492.007 107.4C492.455 107.112 492.975 106.904 493.567 106.776C494.159 106.648 494.775 106.584 495.415 106.584H499.135C499.135 105.864 499.031 105.24 498.823 104.712C498.631 104.184 498.311 103.776 497.863 103.488C497.415 103.184 496.823 103.032 496.087 103.032C495.639 103.032 495.223 103.08 494.839 103.176C494.455 103.272 494.127 103.424 493.855 103.632C493.583 103.84 493.383 104.12 493.255 104.472H491.071C491.183 103.896 491.399 103.408 491.719 103.008C492.055 102.592 492.455 102.256 492.919 102C493.399 101.728 493.911 101.528 494.455 101.4C494.999 101.272 495.543 101.208 496.087 101.208C497.911 101.208 499.207 101.744 499.975 102.816C500.743 103.888 501.127 105.336 501.127 107.16V114H499.423L499.303 112.392C498.951 112.872 498.527 113.24 498.031 113.496C497.535 113.752 497.023 113.92 496.495 114C495.983 114.096 495.495 114.144 495.031 114.144ZM495.223 112.344C496.023 112.344 496.711 112.216 497.287 111.96C497.879 111.688 498.335 111.296 498.655 110.784C498.975 110.272 499.135 109.648 499.135 108.912V108.288H496.903C496.375 108.288 495.855 108.296 495.343 108.312C494.831 108.328 494.367 108.392 493.951 108.504C493.535 108.616 493.199 108.808 492.943 109.08C492.703 109.352 492.583 109.744 492.583 110.256C492.583 110.736 492.703 111.128 492.943 111.432C493.199 111.736 493.527 111.968 493.927 112.128C494.343 112.272 494.775 112.344 495.223 112.344ZM504.288 114V101.352H506.256L506.352 103.272C506.64 102.808 507.008 102.424 507.456 102.12C507.904 101.816 508.392 101.592 508.92 101.448C509.464 101.288 509.992 101.208 510.504 101.208C511.736 101.208 512.696 101.464 513.384 101.976C514.088 102.488 514.584 103.184 514.872 104.064C515.176 104.928 515.328 105.912 515.328 107.016V114H513.288V107.568C513.288 106.976 513.248 106.408 513.168 105.864C513.104 105.32 512.96 104.832 512.736 104.4C512.528 103.968 512.224 103.632 511.824 103.392C511.424 103.136 510.888 103.008 510.216 103.008C509.384 103.008 508.672 103.24 508.08 103.704C507.504 104.168 507.064 104.792 506.76 105.576C506.472 106.36 506.328 107.24 506.328 108.216V114H504.288ZM523.963 119.664C523.099 119.664 522.299 119.528 521.563 119.256C520.827 119 520.203 118.592 519.691 118.032C519.179 117.472 518.835 116.76 518.659 115.896H520.771C520.899 116.376 521.139 116.76 521.491 117.048C521.843 117.336 522.251 117.536 522.715 117.648C523.179 117.776 523.635 117.84 524.083 117.84C524.947 117.84 525.643 117.664 526.171 117.312C526.715 116.976 527.107 116.504 527.347 115.896C527.587 115.304 527.707 114.624 527.707 113.856V112.104C527.435 112.584 527.075 112.976 526.627 113.28C526.179 113.584 525.691 113.808 525.163 113.952C524.635 114.08 524.091 114.144 523.531 114.144C522.251 114.144 521.203 113.864 520.387 113.304C519.571 112.728 518.963 111.96 518.563 111C518.179 110.024 517.987 108.928 517.987 107.712C517.987 106.496 518.187 105.4 518.587 104.424C518.987 103.432 519.603 102.648 520.435 102.072C521.267 101.496 522.331 101.208 523.627 101.208C524.363 101.208 525.107 101.344 525.859 101.616C526.611 101.888 527.227 102.328 527.707 102.936L527.803 101.352H529.747V113.904C529.747 115.088 529.531 116.112 529.099 116.976C528.683 117.84 528.043 118.504 527.179 118.968C526.331 119.432 525.259 119.664 523.963 119.664ZM523.819 112.344C524.667 112.344 525.379 112.128 525.955 111.696C526.531 111.264 526.971 110.688 527.275 109.968C527.579 109.248 527.731 108.464 527.731 107.616C527.731 106.736 527.579 105.952 527.275 105.264C526.987 104.576 526.555 104.032 525.979 103.632C525.403 103.232 524.675 103.032 523.795 103.032C522.883 103.032 522.147 103.24 521.587 103.656C521.043 104.072 520.643 104.632 520.387 105.336C520.147 106.04 520.027 106.824 520.027 107.688C520.027 108.584 520.155 109.384 520.411 110.088C520.667 110.792 521.075 111.344 521.635 111.744C522.195 112.144 522.923 112.344 523.819 112.344ZM538.472 114.144C537.144 114.144 536.032 113.872 535.136 113.328C534.24 112.768 533.568 112 533.12 111.024C532.688 110.048 532.472 108.936 532.472 107.688C532.472 106.424 532.696 105.312 533.144 104.352C533.592 103.376 534.264 102.608 535.16 102.048C536.056 101.488 537.176 101.208 538.52 101.208C539.848 101.208 540.952 101.488 541.832 102.048C542.728 102.608 543.392 103.376 543.824 104.352C544.272 105.312 544.496 106.424 544.496 107.688C544.496 108.936 544.272 110.048 543.824 111.024C543.376 112 542.704 112.768 541.808 113.328C540.928 113.872 539.816 114.144 538.472 114.144ZM538.472 112.344C539.4 112.344 540.152 112.136 540.728 111.72C541.32 111.304 541.752 110.744 542.024 110.04C542.312 109.336 542.456 108.552 542.456 107.688C542.456 106.824 542.312 106.04 542.024 105.336C541.752 104.632 541.32 104.072 540.728 103.656C540.152 103.24 539.4 103.032 538.472 103.032C537.56 103.032 536.808 103.24 536.216 103.656C535.64 104.072 535.208 104.632 534.92 105.336C534.648 106.04 534.512 106.824 534.512 107.688C534.512 108.552 534.648 109.336 534.92 110.04C535.208 110.744 535.64 111.304 536.216 111.72C536.808 112.136 537.56 112.344 538.472 112.344ZM553.969 118.032L546.553 94.776H548.713L556.129 118.032H553.969ZM559.143 114V97.032H570.543V98.928H561.231V105.288H569.367V107.208H561.231V114H559.143ZM573.03 114V97.032H575.07V114H573.03ZM582.336 114.144C581.76 114.144 581.2 114.072 580.656 113.928C580.128 113.768 579.648 113.536 579.216 113.232C578.8 112.912 578.464 112.52 578.208 112.056C577.968 111.576 577.848 111.024 577.848 110.4C577.848 109.68 577.976 109.072 578.232 108.576C578.504 108.08 578.864 107.688 579.312 107.4C579.76 107.112 580.28 106.904 580.872 106.776C581.464 106.648 582.08 106.584 582.72 106.584H586.44C586.44 105.864 586.336 105.24 586.128 104.712C585.936 104.184 585.616 103.776 585.168 103.488C584.72 103.184 584.128 103.032 583.392 103.032C582.944 103.032 582.528 103.08 582.144 103.176C581.76 103.272 581.432 103.424 581.16 103.632C580.888 103.84 580.688 104.12 580.56 104.472H578.376C578.488 103.896 578.704 103.408 579.024 103.008C579.36 102.592 579.76 102.256 580.224 102C580.704 101.728 581.216 101.528 581.76 101.4C582.304 101.272 582.848 101.208 583.392 101.208C585.216 101.208 586.512 101.744 587.28 102.816C588.048 103.888 588.432 105.336 588.432 107.16V114H586.728L586.608 112.392C586.256 112.872 585.832 113.24 585.336 113.496C584.84 113.752 584.328 113.92 583.8 114C583.288 114.096 582.8 114.144 582.336 114.144ZM582.528 112.344C583.328 112.344 584.016 112.216 584.592 111.96C585.184 111.688 585.64 111.296 585.96 110.784C586.28 110.272 586.44 109.648 586.44 108.912V108.288H584.208C583.68 108.288 583.16 108.296 582.648 108.312C582.136 108.328 581.672 108.392 581.256 108.504C580.84 108.616 580.504 108.808 580.248 109.08C580.008 109.352 579.888 109.744 579.888 110.256C579.888 110.736 580.008 111.128 580.248 111.432C580.504 111.736 580.832 111.968 581.232 112.128C581.648 112.272 582.08 112.344 582.528 112.344ZM596.2 114.144C595.624 114.144 595.04 114.088 594.448 113.976C593.872 113.864 593.328 113.672 592.816 113.4C592.32 113.128 591.904 112.76 591.568 112.296C591.232 111.832 591.016 111.256 590.92 110.568H592.984C593.144 111 593.4 111.352 593.752 111.624C594.12 111.88 594.528 112.064 594.976 112.176C595.44 112.288 595.88 112.344 596.296 112.344C596.552 112.344 596.848 112.328 597.184 112.296C597.52 112.264 597.84 112.192 598.144 112.08C598.464 111.952 598.72 111.768 598.912 111.528C599.12 111.288 599.224 110.952 599.224 110.52C599.224 110.2 599.152 109.936 599.008 109.728C598.864 109.52 598.664 109.352 598.408 109.224C598.152 109.08 597.84 108.976 597.472 108.912C596.72 108.752 595.912 108.6 595.048 108.456C594.2 108.312 593.448 108.04 592.792 107.64C592.568 107.496 592.36 107.336 592.168 107.16C591.992 106.968 591.84 106.76 591.712 106.536C591.584 106.296 591.48 106.04 591.4 105.768C591.336 105.48 591.304 105.168 591.304 104.832C591.304 104.208 591.424 103.672 591.664 103.224C591.92 102.76 592.272 102.384 592.72 102.096C593.168 101.792 593.68 101.568 594.256 101.424C594.848 101.28 595.48 101.208 596.152 101.208C596.984 101.208 597.728 101.344 598.384 101.616C599.056 101.872 599.608 102.256 600.04 102.768C600.472 103.264 600.728 103.88 600.808 104.616H598.912C598.8 104.152 598.496 103.776 598 103.488C597.504 103.184 596.872 103.032 596.104 103.032C595.848 103.032 595.56 103.056 595.24 103.104C594.92 103.136 594.616 103.216 594.328 103.344C594.04 103.456 593.8 103.632 593.608 103.872C593.416 104.096 593.32 104.4 593.32 104.784C593.32 105.136 593.408 105.432 593.584 105.672C593.776 105.912 594.04 106.104 594.376 106.248C594.712 106.392 595.096 106.512 595.528 106.608C596.088 106.72 596.704 106.84 597.376 106.968C598.048 107.08 598.576 107.2 598.96 107.328C599.472 107.488 599.896 107.712 600.232 108C600.584 108.288 600.84 108.632 601 109.032C601.176 109.432 601.264 109.896 601.264 110.424C601.264 111.176 601.112 111.792 600.808 112.272C600.52 112.752 600.128 113.128 599.632 113.4C599.136 113.672 598.584 113.864 597.976 113.976C597.384 114.088 596.792 114.144 596.2 114.144ZM603.803 114V97.032H605.843V106.8H608.051L611.843 101.352H614.147L609.923 107.376L614.507 114H612.107L608.291 108.576H605.843V114H603.803ZM471.856 150.088C470.896 148.952 470.096 147.68 469.456 146.272C468.832 144.88 468.36 143.448 468.04 141.976C467.72 140.488 467.56 139.08 467.56 137.752C467.56 136.408 467.72 135 468.04 133.528C468.376 132.056 468.864 130.616 469.504 129.208C470.144 127.784 470.944 126.504 471.904 125.368H474.112C472.992 126.84 472.096 128.256 471.424 129.616C470.768 130.976 470.296 132.328 470.008 133.672C469.736 135 469.6 136.36 469.6 137.752C469.6 139.16 469.744 140.528 470.032 141.856C470.336 143.184 470.816 144.52 471.472 145.864C472.128 147.208 472.992 148.616 474.064 150.088H471.856ZM475.471 145V128.032H481.351C482.599 128.032 483.671 128.24 484.567 128.656C485.463 129.056 486.143 129.672 486.607 130.504C487.087 131.336 487.327 132.392 487.327 133.672C487.327 134.92 487.047 135.976 486.487 136.84C485.943 137.688 485.191 138.328 484.231 138.76C483.271 139.192 482.167 139.408 480.919 139.408H477.559V145H475.471ZM477.559 137.512H480.823C482.119 137.512 483.167 137.208 483.967 136.6C484.783 135.976 485.191 134.968 485.191 133.576C485.191 132.36 484.863 131.448 484.207 130.84C483.551 130.232 482.567 129.928 481.255 129.928H477.559V137.512ZM495.676 150.664C494.7 150.664 493.756 150.528 492.844 150.256C491.948 149.984 491.14 149.512 490.42 148.84L491.308 147.232C491.932 147.728 492.596 148.12 493.3 148.408C494.02 148.696 494.772 148.84 495.556 148.84C496.868 148.84 497.804 148.456 498.364 147.688C498.94 146.936 499.228 145.976 499.228 144.808V143.296C498.94 143.728 498.572 144.088 498.124 144.376C497.692 144.648 497.212 144.856 496.684 145C496.156 145.128 495.612 145.192 495.052 145.192C493.804 145.192 492.82 144.944 492.1 144.448C491.38 143.952 490.868 143.264 490.564 142.384C490.26 141.504 490.108 140.488 490.108 139.336V132.352H492.148V138.76C492.148 139.336 492.18 139.904 492.244 140.464C492.324 141.008 492.476 141.504 492.7 141.952C492.924 142.384 493.252 142.736 493.684 143.008C494.116 143.264 494.692 143.392 495.412 143.392C496.324 143.392 497.052 143.168 497.596 142.72C498.156 142.272 498.556 141.672 498.796 140.92C499.052 140.168 499.18 139.336 499.18 138.424V132.352H501.22V145C501.22 145.912 501.1 146.72 500.86 147.424C500.62 148.128 500.26 148.72 499.78 149.2C499.3 149.68 498.716 150.04 498.028 150.28C497.356 150.536 496.572 150.664 495.676 150.664ZM509.564 145C508.604 145 507.828 144.856 507.236 144.568C506.66 144.28 506.236 143.832 505.964 143.224C505.708 142.616 505.58 141.848 505.58 140.92V134.152H503.516V132.352H505.58V128.584H507.62V132.352H511.004V134.152H507.62V140.704C507.62 141.568 507.772 142.208 508.076 142.624C508.396 143.024 509.036 143.224 509.996 143.224H510.932V145H509.564ZM513.311 145V128.032H515.351V134.296C515.655 133.848 516.023 133.472 516.455 133.168C516.903 132.848 517.391 132.608 517.919 132.448C518.447 132.288 518.991 132.208 519.551 132.208C520.783 132.208 521.743 132.464 522.431 132.976C523.135 133.488 523.631 134.184 523.919 135.064C524.207 135.928 524.351 136.92 524.351 138.04V145H522.311V138.664C522.311 138.104 522.271 137.552 522.191 137.008C522.127 136.448 521.991 135.944 521.783 135.496C521.575 135.048 521.255 134.688 520.823 134.416C520.407 134.144 519.839 134.008 519.119 134.008C518.431 134.008 517.839 134.16 517.343 134.464C516.863 134.768 516.479 135.176 516.191 135.688C515.903 136.184 515.687 136.736 515.543 137.344C515.415 137.936 515.351 138.52 515.351 139.096V145H513.311ZM533.011 145.144C531.683 145.144 530.571 144.872 529.675 144.328C528.779 143.768 528.107 143 527.659 142.024C527.227 141.048 527.011 139.936 527.011 138.688C527.011 137.424 527.235 136.312 527.683 135.352C528.131 134.376 528.803 133.608 529.699 133.048C530.595 132.488 531.715 132.208 533.059 132.208C534.387 132.208 535.491 132.488 536.371 133.048C537.267 133.608 537.931 134.376 538.363 135.352C538.811 136.312 539.035 137.424 539.035 138.688C539.035 139.936 538.811 141.048 538.363 142.024C537.915 143 537.243 143.768 536.347 144.328C535.467 144.872 534.355 145.144 533.011 145.144ZM533.011 143.344C533.939 143.344 534.691 143.136 535.267 142.72C535.859 142.304 536.291 141.744 536.563 141.04C536.851 140.336 536.995 139.552 536.995 138.688C536.995 137.824 536.851 137.04 536.563 136.336C536.291 135.632 535.859 135.072 535.267 134.656C534.691 134.24 533.939 134.032 533.011 134.032C532.099 134.032 531.347 134.24 530.755 134.656C530.179 135.072 529.747 135.632 529.459 136.336C529.187 137.04 529.051 137.824 529.051 138.688C529.051 139.552 529.187 140.336 529.459 141.04C529.747 141.744 530.179 142.304 530.755 142.72C531.347 143.136 532.099 143.344 533.011 143.344ZM541.764 145V132.352H543.732L543.828 134.272C544.116 133.808 544.484 133.424 544.932 133.12C545.38 132.816 545.868 132.592 546.396 132.448C546.94 132.288 547.468 132.208 547.98 132.208C549.212 132.208 550.172 132.464 550.86 132.976C551.564 133.488 552.06 134.184 552.348 135.064C552.652 135.928 552.804 136.912 552.804 138.016V145H550.764V138.568C550.764 137.976 550.724 137.408 550.644 136.864C550.58 136.32 550.436 135.832 550.212 135.4C550.004 134.968 549.7 134.632 549.3 134.392C548.9 134.136 548.364 134.008 547.692 134.008C546.86 134.008 546.148 134.24 545.556 134.704C544.98 135.168 544.54 135.792 544.236 136.576C543.948 137.36 543.804 138.24 543.804 139.216V145H541.764ZM556.52 147.904L555.944 147.112C556.168 146.952 556.376 146.76 556.568 146.536C556.76 146.312 556.928 146.072 557.072 145.816C557.232 145.56 557.344 145.304 557.408 145.048C556.992 145.016 556.656 144.88 556.4 144.64C556.144 144.4 556.016 144.08 556.016 143.68C556.032 143.264 556.176 142.936 556.448 142.696C556.736 142.44 557.064 142.312 557.432 142.312C557.896 142.312 558.264 142.48 558.536 142.816C558.824 143.152 558.968 143.624 558.968 144.232C558.968 144.712 558.848 145.208 558.608 145.72C558.384 146.232 558.088 146.68 557.72 147.064C557.352 147.464 556.952 147.744 556.52 147.904ZM572.72 145.192C571.888 145.192 571.144 145.096 570.488 144.904C569.848 144.712 569.304 144.416 568.856 144.016C568.408 143.616 568.056 143.112 567.8 142.504C567.544 141.88 567.392 141.152 567.344 140.32H569.456C569.52 140.928 569.672 141.456 569.912 141.904C570.168 142.352 570.52 142.696 570.968 142.936C571.432 143.176 572.016 143.296 572.72 143.296C573.472 143.296 574.056 143.136 574.472 142.816C574.904 142.496 575.208 142.056 575.384 141.496C575.576 140.936 575.672 140.296 575.672 139.576V128.032H577.76V139.144C577.76 140.024 577.672 140.84 577.496 141.592C577.32 142.328 577.032 142.968 576.632 143.512C576.248 144.04 575.728 144.456 575.072 144.76C574.432 145.048 573.648 145.192 572.72 145.192ZM587.927 145.192C586.855 145.192 585.839 145.048 584.879 144.76C583.935 144.456 583.127 143.968 582.455 143.296C581.783 142.608 581.327 141.696 581.087 140.56H583.271C583.495 141.28 583.855 141.84 584.351 142.24C584.863 142.64 585.447 142.92 586.103 143.08C586.759 143.224 587.415 143.296 588.071 143.296C588.727 143.296 589.335 143.208 589.895 143.032C590.471 142.84 590.935 142.536 591.287 142.12C591.655 141.704 591.839 141.168 591.839 140.512C591.839 140 591.743 139.584 591.551 139.264C591.375 138.944 591.119 138.688 590.783 138.496C590.463 138.288 590.079 138.12 589.631 137.992C589.039 137.8 588.407 137.64 587.735 137.512C587.063 137.384 586.399 137.232 585.743 137.056C585.103 136.88 584.503 136.656 583.943 136.384C583.639 136.224 583.343 136.032 583.055 135.808C582.783 135.568 582.543 135.296 582.335 134.992C582.143 134.672 581.983 134.312 581.855 133.912C581.743 133.512 581.687 133.072 581.687 132.592C581.687 131.872 581.799 131.248 582.023 130.72C582.247 130.192 582.551 129.744 582.935 129.376C583.319 129.008 583.767 128.712 584.279 128.488C584.791 128.264 585.335 128.104 585.911 128.008C586.503 127.896 587.095 127.84 587.687 127.84C588.663 127.84 589.575 127.992 590.423 128.296C591.287 128.584 591.999 129.056 592.559 129.712C593.135 130.368 593.447 131.256 593.495 132.376H591.455C591.375 131.704 591.151 131.176 590.783 130.792C590.415 130.408 589.959 130.136 589.415 129.976C588.871 129.816 588.295 129.736 587.687 129.736C587.239 129.736 586.783 129.776 586.319 129.856C585.871 129.936 585.455 130.08 585.071 130.288C584.703 130.48 584.407 130.752 584.183 131.104C583.959 131.44 583.847 131.872 583.847 132.4C583.847 132.816 583.919 133.184 584.063 133.504C584.223 133.824 584.431 134.096 584.687 134.32C584.959 134.528 585.255 134.704 585.575 134.848C586.343 135.168 587.191 135.408 588.119 135.568C589.063 135.712 589.943 135.928 590.759 136.216C591.239 136.376 591.679 136.576 592.079 136.816C592.479 137.056 592.815 137.336 593.087 137.656C593.375 137.976 593.591 138.344 593.735 138.76C593.895 139.16 593.975 139.616 593.975 140.128C593.975 141.056 593.815 141.848 593.495 142.504C593.175 143.144 592.735 143.664 592.175 144.064C591.615 144.464 590.967 144.752 590.231 144.928C589.511 145.104 588.743 145.192 587.927 145.192ZM596.832 147.904L596.256 147.112C596.48 146.952 596.688 146.76 596.88 146.536C597.072 146.312 597.24 146.072 597.384 145.816C597.544 145.56 597.656 145.304 597.72 145.048C597.304 145.016 596.968 144.88 596.712 144.64C596.456 144.4 596.328 144.08 596.328 143.68C596.344 143.264 596.488 142.936 596.76 142.696C597.048 142.44 597.376 142.312 597.744 142.312C598.208 142.312 598.576 142.48 598.848 142.816C599.136 143.152 599.28 143.624 599.28 144.232C599.28 144.712 599.16 145.208 598.92 145.72C598.696 146.232 598.4 146.68 598.032 147.064C597.664 147.464 597.264 147.744 596.832 147.904ZM615.6 145.192C613.856 145.192 612.4 144.824 611.232 144.088C610.08 143.336 609.216 142.312 608.64 141.016C608.08 139.704 607.8 138.208 607.8 136.528C607.8 134.864 608.088 133.384 608.664 132.088C609.24 130.776 610.104 129.744 611.256 128.992C612.424 128.224 613.888 127.84 615.648 127.84C616.896 127.84 617.968 128.04 618.864 128.44C619.776 128.824 620.512 129.36 621.072 130.048C621.632 130.736 622.016 131.544 622.224 132.472H620.112C619.872 131.64 619.352 130.976 618.552 130.48C617.768 129.984 616.776 129.736 615.576 129.736C614.232 129.736 613.144 130.056 612.312 130.696C611.496 131.32 610.896 132.144 610.512 133.168C610.128 134.176 609.936 135.272 609.936 136.456C609.936 137.704 610.136 138.848 610.536 139.888C610.936 140.928 611.56 141.76 612.408 142.384C613.256 142.992 614.336 143.296 615.648 143.296C616.448 143.296 617.16 143.184 617.784 142.96C618.424 142.736 618.952 142.416 619.368 142C619.8 141.584 620.096 141.104 620.256 140.56H622.536C622.296 141.488 621.864 142.304 621.24 143.008C620.632 143.696 619.856 144.232 618.912 144.616C617.968 145 616.864 145.192 615.6 145.192ZM631.872 145.192C630.8 145.192 629.784 145.048 628.824 144.76C627.88 144.456 627.072 143.968 626.4 143.296C625.728 142.608 625.272 141.696 625.032 140.56H627.216C627.44 141.28 627.8 141.84 628.296 142.24C628.808 142.64 629.392 142.92 630.048 143.08C630.704 143.224 631.36 143.296 632.016 143.296C632.672 143.296 633.28 143.208 633.84 143.032C634.416 142.84 634.88 142.536 635.232 142.12C635.6 141.704 635.784 141.168 635.784 140.512C635.784 140 635.688 139.584 635.496 139.264C635.32 138.944 635.064 138.688 634.728 138.496C634.408 138.288 634.024 138.12 633.576 137.992C632.984 137.8 632.352 137.64 631.68 137.512C631.008 137.384 630.344 137.232 629.688 137.056C629.048 136.88 628.448 136.656 627.888 136.384C627.584 136.224 627.288 136.032 627 135.808C626.728 135.568 626.488 135.296 626.28 134.992C626.088 134.672 625.928 134.312 625.8 133.912C625.688 133.512 625.632 133.072 625.632 132.592C625.632 131.872 625.744 131.248 625.968 130.72C626.192 130.192 626.496 129.744 626.88 129.376C627.264 129.008 627.712 128.712 628.224 128.488C628.736 128.264 629.28 128.104 629.856 128.008C630.448 127.896 631.04 127.84 631.632 127.84C632.608 127.84 633.52 127.992 634.368 128.296C635.232 128.584 635.944 129.056 636.504 129.712C637.08 130.368 637.392 131.256 637.44 132.376H635.4C635.32 131.704 635.096 131.176 634.728 130.792C634.36 130.408 633.904 130.136 633.36 129.976C632.816 129.816 632.24 129.736 631.632 129.736C631.184 129.736 630.728 129.776 630.264 129.856C629.816 129.936 629.4 130.08 629.016 130.288C628.648 130.48 628.352 130.752 628.128 131.104C627.904 131.44 627.792 131.872 627.792 132.4C627.792 132.816 627.864 133.184 628.008 133.504C628.168 133.824 628.376 134.096 628.632 134.32C628.904 134.528 629.2 134.704 629.52 134.848C630.288 135.168 631.136 135.408 632.064 135.568C633.008 135.712 633.888 135.928 634.704 136.216C635.184 136.376 635.624 136.576 636.024 136.816C636.424 137.056 636.76 137.336 637.032 137.656C637.32 137.976 637.536 138.344 637.68 138.76C637.84 139.16 637.92 139.616 637.92 140.128C637.92 141.056 637.76 141.848 637.44 142.504C637.12 143.144 636.68 143.664 636.12 144.064C635.56 144.464 634.912 144.752 634.176 144.928C633.456 145.104 632.688 145.192 631.872 145.192ZM647.646 145.192C646.574 145.192 645.558 145.048 644.598 144.76C643.654 144.456 642.846 143.968 642.174 143.296C641.502 142.608 641.046 141.696 640.806 140.56H642.99C643.214 141.28 643.574 141.84 644.07 142.24C644.582 142.64 645.166 142.92 645.822 143.08C646.478 143.224 647.134 143.296 647.79 143.296C648.446 143.296 649.054 143.208 649.614 143.032C650.19 142.84 650.654 142.536 651.006 142.12C651.374 141.704 651.557 141.168 651.557 140.512C651.557 140 651.462 139.584 651.27 139.264C651.094 138.944 650.838 138.688 650.502 138.496C650.182 138.288 649.798 138.12 649.35 137.992C648.758 137.8 648.126 137.64 647.454 137.512C646.782 137.384 646.118 137.232 645.462 137.056C644.822 136.88 644.222 136.656 643.662 136.384C643.358 136.224 643.062 136.032 642.774 135.808C642.502 135.568 642.262 135.296 642.054 134.992C641.862 134.672 641.702 134.312 641.574 133.912C641.462 133.512 641.406 133.072 641.406 132.592C641.406 131.872 641.518 131.248 641.742 130.72C641.966 130.192 642.27 129.744 642.654 129.376C643.038 129.008 643.486 128.712 643.998 128.488C644.51 128.264 645.054 128.104 645.63 128.008C646.222 127.896 646.814 127.84 647.406 127.84C648.382 127.84 649.294 127.992 650.142 128.296C651.006 128.584 651.718 129.056 652.278 129.712C652.854 130.368 653.166 131.256 653.214 132.376H651.174C651.094 131.704 650.87 131.176 650.502 130.792C650.134 130.408 649.678 130.136 649.134 129.976C648.59 129.816 648.014 129.736 647.406 129.736C646.958 129.736 646.502 129.776 646.038 129.856C645.59 129.936 645.174 130.08 644.79 130.288C644.422 130.48 644.126 130.752 643.902 131.104C643.678 131.44 643.566 131.872 643.566 132.4C643.566 132.816 643.638 133.184 643.782 133.504C643.942 133.824 644.15 134.096 644.406 134.32C644.678 134.528 644.974 134.704 645.294 134.848C646.062 135.168 646.91 135.408 647.838 135.568C648.782 135.712 649.662 135.928 650.478 136.216C650.958 136.376 651.398 136.576 651.798 136.816C652.198 137.056 652.534 137.336 652.806 137.656C653.094 137.976 653.31 138.344 653.454 138.76C653.614 139.16 653.694 139.616 653.694 140.128C653.694 141.056 653.534 141.848 653.214 142.504C652.894 143.144 652.454 143.664 651.894 144.064C651.334 144.464 650.686 144.752 649.95 144.928C649.23 145.104 648.462 145.192 647.646 145.192ZM656.63 150.088H654.422C655.494 148.616 656.358 147.208 657.014 145.864C657.67 144.52 658.142 143.184 658.43 141.856C658.734 140.528 658.886 139.16 658.886 137.752C658.886 136.36 658.742 135 658.454 133.672C658.182 132.328 657.718 130.976 657.062 129.616C656.406 128.256 655.51 126.84 654.374 125.368H656.582C657.542 126.504 658.342 127.784 658.982 129.208C659.638 130.616 660.126 132.056 660.446 133.528C660.766 135 660.926 136.408 660.926 137.752C660.926 139.08 660.766 140.488 660.446 141.976C660.142 143.448 659.67 144.88 659.03 146.272C658.39 147.68 657.59 148.952 656.63 150.088Z" fill="#8F8F8F"/>
<path d="M302.088 655V638.032H313.488V639.928H304.176V646.288H312.312V648.208H304.176V655H302.088ZM315.975 655V638.032H318.015V655H315.975ZM326.505 655.144C324.761 655.144 323.433 654.68 322.521 653.752C321.625 652.824 321.177 651.4 321.177 649.48V642.352H323.217V649.384C323.217 650.216 323.337 650.928 323.577 651.52C323.817 652.112 324.177 652.568 324.657 652.888C325.153 653.192 325.769 653.344 326.505 653.344C327.273 653.344 327.905 653.192 328.401 652.888C328.897 652.568 329.257 652.112 329.481 651.52C329.721 650.928 329.841 650.216 329.841 649.384V642.352H331.881V649.48C331.881 651.4 331.417 652.824 330.489 653.752C329.577 654.68 328.249 655.144 326.505 655.144ZM339.805 655.144C338.477 655.144 337.541 654.784 336.997 654.064C336.469 653.344 336.205 652.32 336.205 650.992V644.152H334.141V642.352H336.205V638.56H338.245V642.352H342.133V644.152H338.245V650.728C338.245 651.208 338.285 651.648 338.365 652.048C338.445 652.432 338.613 652.744 338.869 652.984C339.125 653.208 339.509 653.328 340.021 653.344C340.389 653.344 340.709 653.28 340.981 653.152C341.269 653.024 341.509 652.872 341.701 652.696L342.589 654.184C342.317 654.408 342.029 654.592 341.725 654.736C341.437 654.88 341.133 654.984 340.813 655.048C340.509 655.112 340.173 655.144 339.805 655.144ZM349.321 655.144C347.993 655.144 347.057 654.784 346.513 654.064C345.985 653.344 345.721 652.32 345.721 650.992V644.152H343.657V642.352H345.721V638.56H347.761V642.352H351.649V644.152H347.761V650.728C347.761 651.208 347.801 651.648 347.881 652.048C347.961 652.432 348.129 652.744 348.385 652.984C348.641 653.208 349.025 653.328 349.537 653.344C349.905 653.344 350.225 653.28 350.497 653.152C350.785 653.024 351.025 652.872 351.217 652.696L352.105 654.184C351.833 654.408 351.545 654.592 351.241 654.736C350.953 654.88 350.649 654.984 350.329 655.048C350.025 655.112 349.689 655.144 349.321 655.144ZM359.557 655.144C358.213 655.144 357.101 654.872 356.221 654.328C355.341 653.768 354.685 653 354.253 652.024C353.821 651.048 353.605 649.936 353.605 648.688C353.605 647.424 353.829 646.312 354.277 645.352C354.741 644.376 355.413 643.608 356.293 643.048C357.173 642.488 358.253 642.208 359.533 642.208C360.525 642.208 361.373 642.4 362.077 642.784C362.797 643.152 363.389 643.648 363.853 644.272C364.317 644.896 364.653 645.584 364.861 646.336C365.069 647.072 365.157 647.816 365.125 648.568C365.109 648.712 365.093 648.856 365.077 649C365.077 649.144 365.069 649.288 365.053 649.432H355.669C355.733 650.168 355.917 650.832 356.221 651.424C356.525 652.016 356.957 652.488 357.517 652.84C358.077 653.176 358.773 653.344 359.605 653.344C360.021 653.344 360.437 653.296 360.853 653.2C361.285 653.088 361.669 652.904 362.005 652.648C362.357 652.392 362.605 652.048 362.749 651.616H364.837C364.645 652.432 364.285 653.104 363.757 653.632C363.229 654.144 362.597 654.528 361.861 654.784C361.125 655.024 360.357 655.144 359.557 655.144ZM355.717 647.656H363.037C363.021 646.936 362.861 646.304 362.557 645.76C362.253 645.216 361.837 644.792 361.309 644.488C360.797 644.184 360.181 644.032 359.461 644.032C358.677 644.032 358.013 644.2 357.469 644.536C356.941 644.872 356.533 645.312 356.245 645.856C355.957 646.4 355.781 647 355.717 647.656ZM367.842 655V642.352H369.81L369.906 644.32C370.226 643.824 370.594 643.424 371.01 643.12C371.442 642.816 371.914 642.592 372.426 642.448C372.954 642.288 373.522 642.208 374.13 642.208C374.242 642.208 374.346 642.208 374.442 642.208C374.554 642.208 374.666 642.208 374.778 642.208V644.128H374.034C373.042 644.128 372.234 644.344 371.61 644.776C371.002 645.192 370.562 645.76 370.29 646.48C370.018 647.184 369.882 647.968 369.882 648.832V655H367.842ZM387.512 660.088C386.552 658.952 385.752 657.68 385.112 656.272C384.488 654.88 384.016 653.448 383.696 651.976C383.376 650.488 383.216 649.08 383.216 647.752C383.216 646.408 383.376 645 383.696 643.528C384.032 642.056 384.52 640.616 385.16 639.208C385.8 637.784 386.6 636.504 387.56 635.368H389.768C388.648 636.84 387.752 638.256 387.08 639.616C386.424 640.976 385.952 642.328 385.664 643.672C385.392 645 385.256 646.36 385.256 647.752C385.256 649.16 385.4 650.528 385.688 651.856C385.992 653.184 386.472 654.52 387.128 655.864C387.784 657.208 388.648 658.616 389.72 660.088H387.512ZM391.127 655V638.032H397.151C398.911 638.032 400.383 638.392 401.567 639.112C402.751 639.816 403.639 640.808 404.231 642.088C404.839 643.352 405.143 644.832 405.143 646.528C405.143 648.208 404.847 649.688 404.255 650.968C403.663 652.232 402.775 653.224 401.591 653.944C400.407 654.648 398.927 655 397.151 655H391.127ZM393.215 653.104H397.007C398.383 653.104 399.511 652.824 400.391 652.264C401.271 651.704 401.927 650.936 402.359 649.96C402.791 648.968 403.007 647.824 403.007 646.528C403.007 645.264 402.791 644.136 402.359 643.144C401.943 642.152 401.303 641.368 400.439 640.792C399.575 640.216 398.471 639.928 397.127 639.928H393.215V653.104ZM411.977 655.144C411.401 655.144 410.841 655.072 410.297 654.928C409.769 654.768 409.289 654.536 408.857 654.232C408.441 653.912 408.105 653.52 407.849 653.056C407.609 652.576 407.489 652.024 407.489 651.4C407.489 650.68 407.617 650.072 407.873 649.576C408.145 649.08 408.505 648.688 408.953 648.4C409.401 648.112 409.921 647.904 410.513 647.776C411.105 647.648 411.721 647.584 412.361 647.584H416.081C416.081 646.864 415.977 646.24 415.769 645.712C415.577 645.184 415.257 644.776 414.809 644.488C414.361 644.184 413.769 644.032 413.033 644.032C412.585 644.032 412.169 644.08 411.785 644.176C411.401 644.272 411.073 644.424 410.801 644.632C410.529 644.84 410.329 645.12 410.201 645.472H408.017C408.129 644.896 408.345 644.408 408.665 644.008C409.001 643.592 409.401 643.256 409.865 643C410.345 642.728 410.857 642.528 411.401 642.4C411.945 642.272 412.489 642.208 413.033 642.208C414.857 642.208 416.153 642.744 416.921 643.816C417.689 644.888 418.073 646.336 418.073 648.16V655H416.369L416.249 653.392C415.897 653.872 415.473 654.24 414.977 654.496C414.481 654.752 413.969 654.92 413.441 655C412.929 655.096 412.441 655.144 411.977 655.144ZM412.169 653.344C412.969 653.344 413.657 653.216 414.233 652.96C414.825 652.688 415.281 652.296 415.601 651.784C415.921 651.272 416.081 650.648 416.081 649.912V649.288H413.849C413.321 649.288 412.801 649.296 412.289 649.312C411.777 649.328 411.313 649.392 410.897 649.504C410.481 649.616 410.145 649.808 409.889 650.08C409.649 650.352 409.529 650.744 409.529 651.256C409.529 651.736 409.649 652.128 409.889 652.432C410.145 652.736 410.473 652.968 410.873 653.128C411.289 653.272 411.721 653.344 412.169 653.344ZM421.233 655V642.352H423.201L423.297 644.32C423.617 643.824 423.985 643.424 424.401 643.12C424.833 642.816 425.305 642.592 425.817 642.448C426.345 642.288 426.913 642.208 427.521 642.208C427.633 642.208 427.737 642.208 427.833 642.208C427.945 642.208 428.057 642.208 428.169 642.208V644.128H427.425C426.433 644.128 425.625 644.344 425.001 644.776C424.393 645.192 423.953 645.76 423.681 646.48C423.409 647.184 423.273 647.968 423.273 648.832V655H421.233ZM436.049 655C435.089 655 434.313 654.856 433.721 654.568C433.145 654.28 432.721 653.832 432.449 653.224C432.193 652.616 432.065 651.848 432.065 650.92V644.152H430.001V642.352H432.065V638.584H434.105V642.352H437.489V644.152H434.105V650.704C434.105 651.568 434.257 652.208 434.561 652.624C434.881 653.024 435.521 653.224 436.481 653.224H437.417V655H436.049ZM439.724 660.088H437.515C438.588 658.616 439.452 657.208 440.108 655.864C440.764 654.52 441.236 653.184 441.524 651.856C441.828 650.528 441.98 649.16 441.98 647.752C441.98 646.36 441.836 645 441.548 643.672C441.276 642.328 440.812 640.976 440.156 639.616C439.5 638.256 438.604 636.84 437.467 635.368H439.676C440.636 636.504 441.436 637.784 442.076 639.208C442.732 640.616 443.22 642.056 443.54 643.528C443.86 645 444.02 646.408 444.02 647.752C444.02 649.08 443.86 650.488 443.54 651.976C443.236 653.448 442.764 654.88 442.124 656.272C441.484 657.68 440.684 658.952 439.724 660.088Z" fill="#8F8F8F"/>
<path d="M4.824 461V410.024H42.48V422.12H17.856V431.408H38.16V443.36H17.856V461H4.824ZM56.8907 461.576C55.1147 461.576 53.4347 461.336 51.8507 460.856C50.2667 460.376 48.8507 459.656 47.6027 458.696C46.4027 457.736 45.4427 456.536 44.7227 455.096C44.0027 453.656 43.6427 451.952 43.6427 449.984C43.6427 447.104 44.2427 444.848 45.4427 443.216C46.6907 441.584 48.3467 440.384 50.4107 439.616C52.5227 438.848 54.8987 438.368 57.5387 438.176C60.2267 437.936 63.0107 437.816 65.8907 437.816H67.6187C67.6187 436.904 67.4027 436.088 66.9707 435.368C66.5387 434.648 65.9147 434.072 65.0987 433.64C64.3307 433.208 63.3707 432.992 62.2187 432.992C61.4027 432.992 60.6107 433.112 59.8427 433.352C59.0747 433.592 58.4267 433.928 57.8987 434.36C57.4187 434.744 57.1307 435.224 57.0347 435.8H44.3627C44.6507 433.448 45.3467 431.432 46.4507 429.752C47.5547 428.024 48.9467 426.632 50.6267 425.576C52.3067 424.472 54.1787 423.656 56.2427 423.128C58.3547 422.6 60.5387 422.336 62.7947 422.336C68.3627 422.336 72.5627 423.896 75.3947 427.016C78.2747 430.088 79.7147 434.624 79.7147 440.624V461H67.9787V456.032C66.7307 457.904 65.3147 459.224 63.7307 459.992C62.1947 460.76 60.7787 461.216 59.4827 461.36C58.2347 461.504 57.3707 461.576 56.8907 461.576ZM60.3467 451.856C61.5467 451.856 62.6987 451.568 63.8027 450.992C64.9547 450.368 65.8907 449.6 66.6107 448.688C67.3787 447.776 67.7627 446.864 67.7627 445.952V445.664H60.6347C60.0587 445.664 59.5067 445.736 58.9787 445.88C58.4507 445.976 57.9707 446.144 57.5387 446.384C57.1547 446.624 56.8427 446.936 56.6027 447.32C56.3627 447.704 56.2427 448.184 56.2427 448.76C56.2427 449.432 56.4107 450.008 56.7467 450.488C57.1307 450.92 57.6347 451.256 58.2587 451.496C58.8827 451.736 59.5787 451.856 60.3467 451.856ZM101.975 461.576C100.103 461.576 98.2071 461.36 96.2871 460.928C94.3671 460.496 92.5671 459.776 90.8871 458.768C89.2551 457.76 87.8631 456.392 86.7111 454.664C85.5591 452.888 84.7911 450.68 84.4071 448.04H97.2951C97.4871 448.664 97.8231 449.216 98.3031 449.696C98.8311 450.176 99.4551 450.56 100.175 450.848C100.943 451.088 101.759 451.208 102.623 451.208C103.199 451.208 103.703 451.16 104.135 451.064C104.615 450.968 105.023 450.824 105.359 450.632C105.695 450.392 105.935 450.128 106.079 449.84C106.271 449.552 106.367 449.24 106.367 448.904C106.367 448.232 106.103 447.752 105.575 447.464C105.047 447.128 104.327 446.888 103.415 446.744C102.503 446.552 101.471 446.336 100.319 446.096C98.5431 445.712 96.6231 445.232 94.5591 444.656C92.5431 444.032 90.8391 443.264 89.4471 442.352C88.7271 441.872 88.1031 441.344 87.5751 440.768C87.0951 440.144 86.6871 439.472 86.3511 438.752C86.0631 438.032 85.8471 437.288 85.7031 436.52C85.5591 435.752 85.4871 434.936 85.4871 434.072C85.4871 431.864 85.9671 430.016 86.9271 428.528C87.9351 426.992 89.2071 425.768 90.7431 424.856C92.3271 423.944 94.0551 423.296 95.9271 422.912C97.8471 422.48 99.7191 422.264 101.543 422.264C104.231 422.264 106.727 422.696 109.031 423.56C111.383 424.424 113.327 425.816 114.863 427.736C116.447 429.656 117.431 432.2 117.815 435.368H105.503C105.407 434.504 104.927 433.832 104.063 433.352C103.247 432.872 102.239 432.632 101.039 432.632C100.559 432.632 100.103 432.68 99.6711 432.776C99.2871 432.872 98.9271 432.992 98.5911 433.136C98.3031 433.28 98.0631 433.472 97.8711 433.712C97.7271 433.952 97.6551 434.216 97.6551 434.504C97.6551 434.696 97.7031 434.912 97.7991 435.152C97.9431 435.392 98.1831 435.632 98.5191 435.872C98.8551 436.064 99.3111 436.256 99.8871 436.448C101.471 436.832 102.959 437.168 104.351 437.456C105.791 437.744 107.231 438.032 108.671 438.32C110.255 438.608 111.815 439.112 113.351 439.832C114.887 440.504 116.159 441.536 117.167 442.928C118.223 444.32 118.751 446.264 118.751 448.76C118.751 451.208 118.247 453.272 117.239 454.952C116.231 456.584 114.887 457.88 113.207 458.84C111.575 459.8 109.775 460.496 107.807 460.928C105.839 461.36 103.895 461.576 101.975 461.576ZM141.135 461C137.775 461 134.895 460.64 132.495 459.92C130.143 459.2 128.319 457.928 127.023 456.104C125.775 454.232 125.151 451.544 125.151 448.04V434.432H119.895V423.056H125.151V413.624H137.895V423.056H144.879V434.432H137.895V446.096C137.895 447.008 138.039 447.824 138.327 448.544C138.663 449.216 139.575 449.552 141.063 449.552H144.447V461H141.135ZM145.257 461L165.705 410.024H178.953L199.185 461H185.145L182.625 453.8H161.817L159.225 461H145.257ZM165.921 442.064H178.521L172.329 424.568L165.921 442.064ZM203.668 461V410.024H225.052C229.036 410.024 232.54 410.6 235.564 411.752C238.588 412.856 240.964 414.728 242.692 417.368C244.42 419.96 245.284 423.536 245.284 428.096C245.284 432.272 244.372 435.752 242.548 438.536C240.724 441.272 238.252 443.312 235.132 444.656C232.012 446 228.484 446.672 224.548 446.672H216.7V461H203.668ZM216.7 435.08H224.548C227.044 435.08 228.988 434.48 230.38 433.28C231.772 432.08 232.468 430.376 232.468 428.168C232.468 426.2 231.844 424.712 230.596 423.704C229.396 422.648 227.356 422.12 224.476 422.12H216.7V435.08ZM251.832 461V410.024H264.864V461H251.832Z" fill="black"/>
<path d="M238 260.663C305.771 107.821 460.008 0.999738 639.61 0.999738C881.745 0.999738 1078 195.066 1078 434.5C1078 673.933 881.745 868 639.61 868C462.434 868 309.962 764.069 240.812 614.498" stroke="#FF3C00" stroke-width="2"/>
<path d="M135 260.663C202.771 107.821 357.008 0.999738 536.61 0.999738C778.745 0.999738 975 195.066 975 434.5C975 673.933 778.745 868 536.61 868C359.434 868 206.962 764.069 137.812 614.498" stroke="#FF3C00" stroke-width="2"/>
<path d="M26.0001 260.663C93.7714 107.821 248.008 0.999738 427.61 0.999738C669.745 0.999738 866 195.066 866 434.5C866 673.933 669.745 868 427.61 868C250.434 868 97.9623 764.069 28.8124 614.498" stroke="#FF3C00" stroke-width="2"/>
<circle cx="305" cy="714" r="5" fill="#FF3C00"/>
<circle cx="919" cy="98" r="5" fill="#FF3C00"/>
<circle cx="768" cy="707" r="5" fill="#FF3C00"/>
<circle cx="975" cy="431" r="5" fill="#FF3C00"/>
<path d="M768 663V688.5" stroke="#DADADA"/>
<rect width="99" height="37" transform="translate(682 622)" fill="white"/>
<path d="M700.976 649.192C699.216 649.192 697.752 648.824 696.584 648.088C695.432 647.336 694.568 646.312 693.992 645.016C693.432 643.72 693.152 642.24 693.152 640.576C693.152 639.328 693.304 638.176 693.608 637.12C693.928 636.064 694.408 635.144 695.048 634.36C695.688 633.56 696.488 632.944 697.448 632.512C698.424 632.064 699.568 631.84 700.88 631.84C702.128 631.84 703.216 632.032 704.144 632.416C705.072 632.8 705.832 633.336 706.424 634.024C707.032 634.712 707.456 635.528 707.696 636.472H705.416C705.256 635.912 704.968 635.432 704.552 635.032C704.136 634.616 703.616 634.296 702.992 634.072C702.368 633.848 701.656 633.736 700.856 633.736C699.864 633.736 699.016 633.912 698.312 634.264C697.608 634.616 697.032 635.104 696.584 635.728C696.136 636.336 695.808 637.056 695.6 637.888C695.392 638.704 695.288 639.584 695.288 640.528C695.288 641.776 695.488 642.912 695.888 643.936C696.288 644.96 696.904 645.776 697.736 646.384C698.568 646.992 699.64 647.296 700.952 647.296C702.04 647.296 702.968 647.104 703.736 646.72C704.504 646.32 705.096 645.752 705.512 645.016C705.928 644.264 706.136 643.368 706.136 642.328H700.568V640.432H708.128V641.848C708.128 643.32 707.84 644.608 707.264 645.712C706.688 646.816 705.864 647.672 704.792 648.28C703.736 648.888 702.464 649.192 700.976 649.192ZM716.401 649.144C715.073 649.144 713.961 648.872 713.065 648.328C712.169 647.768 711.497 647 711.049 646.024C710.617 645.048 710.401 643.936 710.401 642.688C710.401 641.424 710.625 640.312 711.073 639.352C711.521 638.376 712.193 637.608 713.089 637.048C713.985 636.488 715.105 636.208 716.449 636.208C717.777 636.208 718.881 636.488 719.761 637.048C720.657 637.608 721.321 638.376 721.753 639.352C722.201 640.312 722.425 641.424 722.425 642.688C722.425 643.936 722.201 645.048 721.753 646.024C721.305 647 720.633 647.768 719.737 648.328C718.857 648.872 717.745 649.144 716.401 649.144ZM716.401 647.344C717.329 647.344 718.081 647.136 718.657 646.72C719.249 646.304 719.681 645.744 719.953 645.04C720.241 644.336 720.385 643.552 720.385 642.688C720.385 641.824 720.241 641.04 719.953 640.336C719.681 639.632 719.249 639.072 718.657 638.656C718.081 638.24 717.329 638.032 716.401 638.032C715.489 638.032 714.737 638.24 714.145 638.656C713.569 639.072 713.137 639.632 712.849 640.336C712.577 641.04 712.441 641.824 712.441 642.688C712.441 643.552 712.577 644.336 712.849 645.04C713.137 645.744 713.569 646.304 714.145 646.72C714.737 647.136 715.489 647.344 716.401 647.344ZM725.155 649V632.032H727.195V649H725.155ZM734.461 649.144C733.885 649.144 733.325 649.072 732.781 648.928C732.253 648.768 731.773 648.536 731.341 648.232C730.925 647.912 730.589 647.52 730.333 647.056C730.093 646.576 729.973 646.024 729.973 645.4C729.973 644.68 730.101 644.072 730.357 643.576C730.629 643.08 730.989 642.688 731.437 642.4C731.885 642.112 732.405 641.904 732.997 641.776C733.589 641.648 734.205 641.584 734.845 641.584H738.565C738.565 640.864 738.461 640.24 738.253 639.712C738.061 639.184 737.741 638.776 737.293 638.488C736.845 638.184 736.253 638.032 735.517 638.032C735.069 638.032 734.653 638.08 734.269 638.176C733.885 638.272 733.557 638.424 733.285 638.632C733.013 638.84 732.813 639.12 732.685 639.472H730.501C730.613 638.896 730.829 638.408 731.149 638.008C731.485 637.592 731.885 637.256 732.349 637C732.829 636.728 733.341 636.528 733.885 636.4C734.429 636.272 734.973 636.208 735.517 636.208C737.341 636.208 738.637 636.744 739.405 637.816C740.173 638.888 740.557 640.336 740.557 642.16V649H738.853L738.733 647.392C738.381 647.872 737.957 648.24 737.461 648.496C736.965 648.752 736.453 648.92 735.925 649C735.413 649.096 734.925 649.144 734.461 649.144ZM734.653 647.344C735.453 647.344 736.141 647.216 736.717 646.96C737.309 646.688 737.765 646.296 738.085 645.784C738.405 645.272 738.565 644.648 738.565 643.912V643.288H736.333C735.805 643.288 735.285 643.296 734.773 643.312C734.261 643.328 733.797 643.392 733.381 643.504C732.965 643.616 732.629 643.808 732.373 644.08C732.133 644.352 732.013 644.744 732.013 645.256C732.013 645.736 732.133 646.128 732.373 646.432C732.629 646.736 732.957 646.968 733.357 647.128C733.773 647.272 734.205 647.344 734.653 647.344ZM743.717 649V636.352H745.685L745.781 638.272C746.069 637.808 746.437 637.424 746.885 637.12C747.333 636.816 747.821 636.592 748.349 636.448C748.893 636.288 749.421 636.208 749.933 636.208C751.165 636.208 752.125 636.464 752.813 636.976C753.517 637.488 754.013 638.184 754.301 639.064C754.605 639.928 754.757 640.912 754.757 642.016V649H752.717V642.568C752.717 641.976 752.677 641.408 752.597 640.864C752.533 640.32 752.389 639.832 752.165 639.4C751.957 638.968 751.653 638.632 751.253 638.392C750.853 638.136 750.317 638.008 749.645 638.008C748.813 638.008 748.101 638.24 747.509 638.704C746.933 639.168 746.493 639.792 746.189 640.576C745.901 641.36 745.757 642.24 745.757 643.216V649H743.717ZM763.393 654.664C762.529 654.664 761.729 654.528 760.993 654.256C760.257 654 759.633 653.592 759.121 653.032C758.609 652.472 758.265 651.76 758.089 650.896H760.201C760.329 651.376 760.569 651.76 760.921 652.048C761.273 652.336 761.681 652.536 762.145 652.648C762.609 652.776 763.065 652.84 763.513 652.84C764.377 652.84 765.073 652.664 765.601 652.312C766.145 651.976 766.537 651.504 766.777 650.896C767.017 650.304 767.137 649.624 767.137 648.856V647.104C766.865 647.584 766.505 647.976 766.057 648.28C765.609 648.584 765.121 648.808 764.593 648.952C764.065 649.08 763.521 649.144 762.961 649.144C761.681 649.144 760.633 648.864 759.817 648.304C759.001 647.728 758.393 646.96 757.993 646C757.609 645.024 757.417 643.928 757.417 642.712C757.417 641.496 757.617 640.4 758.017 639.424C758.417 638.432 759.033 637.648 759.865 637.072C760.697 636.496 761.761 636.208 763.057 636.208C763.793 636.208 764.537 636.344 765.289 636.616C766.041 636.888 766.657 637.328 767.137 637.936L767.233 636.352H769.177V648.904C769.177 650.088 768.961 651.112 768.529 651.976C768.113 652.84 767.473 653.504 766.609 653.968C765.761 654.432 764.689 654.664 763.393 654.664ZM763.249 647.344C764.097 647.344 764.809 647.128 765.385 646.696C765.961 646.264 766.401 645.688 766.705 644.968C767.009 644.248 767.161 643.464 767.161 642.616C767.161 641.736 767.009 640.952 766.705 640.264C766.417 639.576 765.985 639.032 765.409 638.632C764.833 638.232 764.105 638.032 763.225 638.032C762.313 638.032 761.577 638.24 761.017 638.656C760.473 639.072 760.073 639.632 759.817 640.336C759.577 641.04 759.457 641.824 759.457 642.688C759.457 643.584 759.585 644.384 759.841 645.088C760.097 645.792 760.505 646.344 761.065 646.744C761.625 647.144 762.353 647.344 763.249 647.344Z" fill="#8F8F8F"/>
<path d="M305 669V694.5" stroke="#DADADA"/>
<path d="M931 431H956.5" stroke="#DADADA"/>
<rect width="169" height="37" transform="translate(755 412)" fill="white"/>
<path d="M769.176 432.64V439H767.088V422.032H773.448C774.376 422.032 775.216 422.128 775.968 422.32C776.72 422.512 777.36 422.816 777.888 423.232C778.416 423.648 778.816 424.2 779.088 424.888C779.376 425.56 779.52 426.376 779.52 427.336C779.52 428.04 779.416 428.672 779.208 429.232C779 429.776 778.72 430.256 778.368 430.672C778.032 431.072 777.632 431.408 777.168 431.68C776.704 431.936 776.224 432.136 775.728 432.28L779.28 439H777L773.616 432.64H769.176ZM772.776 430.744C773.4 430.744 773.984 430.696 774.528 430.6C775.088 430.504 775.576 430.328 775.992 430.072C776.408 429.816 776.736 429.472 776.976 429.04C777.232 428.592 777.368 428 777.384 427.264C777.384 426.048 777.024 425.192 776.304 424.696C775.6 424.184 774.576 423.928 773.232 423.928H769.176V430.744H772.776ZM787.685 437.344C788.837 437.344 789.677 437 790.205 436.312C790.749 435.608 791.021 434.632 791.021 433.384V426.352H793.061V433.48C793.061 435.4 792.597 436.824 791.669 437.752C790.757 438.68 789.429 439.144 787.685 439.144C785.941 439.144 784.613 438.68 783.701 437.752C782.805 436.824 782.357 435.4 782.357 433.48V426.352H784.397V433.384C784.397 434.632 784.669 435.608 785.213 436.312C785.757 437 786.581 437.344 787.685 437.344ZM800.745 428.032C800.457 428.032 800.161 428.056 799.857 428.104C799.569 428.136 799.281 428.216 798.993 428.344C798.721 428.456 798.481 428.632 798.273 428.872C798.081 429.096 797.977 429.4 797.961 429.784C797.961 430.328 798.161 430.736 798.561 431.008C798.977 431.28 799.513 431.48 800.169 431.608C800.441 431.672 800.737 431.736 801.057 431.8C801.377 431.848 801.689 431.904 801.993 431.968C802.313 432.016 802.609 432.072 802.881 432.136C803.169 432.2 803.409 432.264 803.601 432.328C805.137 432.808 805.905 433.84 805.905 435.424C805.889 436.192 805.721 436.816 805.401 437.296C805.097 437.76 804.705 438.128 804.225 438.4C803.761 438.672 803.225 438.864 802.617 438.976C802.025 439.088 801.433 439.144 800.841 439.144C800.265 439.144 799.681 439.088 799.089 438.976C798.497 438.864 797.953 438.672 797.457 438.4C796.977 438.112 796.561 437.744 796.209 437.296C795.873 436.832 795.657 436.256 795.561 435.568H797.625C797.753 435.952 797.953 436.256 798.225 436.48C798.497 436.704 798.785 436.88 799.089 437.008C799.409 437.136 799.705 437.224 799.977 437.272C800.265 437.32 800.585 437.344 800.937 437.344C801.193 437.344 801.489 437.328 801.825 437.296C802.161 437.264 802.481 437.192 802.785 437.08C803.089 436.952 803.345 436.768 803.553 436.528C803.761 436.288 803.865 435.952 803.865 435.52C803.865 435.04 803.705 434.68 803.385 434.44C803.081 434.2 802.657 434.024 802.113 433.912C801.729 433.832 801.329 433.76 800.913 433.696C800.513 433.616 800.105 433.536 799.689 433.456C799.289 433.36 798.897 433.256 798.513 433.144C798.129 433.016 797.769 432.848 797.433 432.64C796.985 432.368 796.625 432 796.353 431.536C796.081 431.072 795.945 430.504 795.945 429.832C795.977 429.128 796.137 428.552 796.425 428.104C796.713 427.64 797.081 427.264 797.529 426.976C798.009 426.688 798.521 426.488 799.065 426.376C799.609 426.264 800.185 426.208 800.793 426.208C802.089 426.208 803.121 426.488 803.889 427.048C804.353 427.368 804.713 427.752 804.969 428.2C805.225 428.648 805.385 429.12 805.449 429.616H803.553C803.441 429.152 803.137 428.776 802.641 428.488C802.145 428.2 801.513 428.048 800.745 428.032ZM811.402 426.352H814.786V428.152H811.402V434.704C811.402 435.568 811.554 436.208 811.858 436.624C812.178 437.024 812.818 437.224 813.778 437.224H814.714V439H813.346C811.906 439 810.882 438.672 810.274 438.016C809.666 437.36 809.362 436.328 809.362 434.92V428.152H807.298V426.352H809.362V422.584H811.402V426.352ZM818.556 439.048C818.14 439.016 817.804 438.88 817.548 438.64C817.292 438.4 817.164 438.08 817.164 437.68C817.18 437.264 817.324 436.936 817.596 436.696C817.884 436.44 818.212 436.312 818.58 436.312C819.044 436.312 819.412 436.48 819.684 436.816C819.972 437.152 820.116 437.624 820.116 438.232C820.116 438.568 820.044 438.936 819.9 439.336C819.772 439.752 819.596 440.128 819.372 440.464C819.148 440.8 818.884 441.096 818.58 441.352C818.292 441.608 817.988 441.792 817.668 441.904L817.092 441.112C817.412 440.888 817.708 440.584 817.98 440.2C818.268 439.816 818.46 439.432 818.556 439.048ZM836.412 423.736C835.404 423.736 834.54 423.92 833.82 424.288C833.116 424.656 832.532 425.152 832.068 425.776C831.62 426.4 831.292 427.12 831.084 427.936C830.876 428.736 830.772 429.576 830.772 430.456C830.772 431.4 830.884 432.288 831.108 433.12C831.332 433.952 831.676 434.68 832.14 435.304C832.604 435.912 833.196 436.4 833.916 436.768C834.636 437.12 835.492 437.296 836.484 437.296C837.684 437.296 838.692 437.048 839.508 436.552C840.324 436.056 840.852 435.392 841.092 434.56H843.372C843.004 435.968 842.228 437.096 841.044 437.944C839.86 438.776 838.324 439.192 836.436 439.192C835.124 439.192 833.98 438.976 833.004 438.544C832.028 438.112 831.212 437.512 830.556 436.744C829.916 435.976 829.436 435.064 829.116 434.008C828.796 432.952 828.636 431.792 828.636 430.528C828.636 429.28 828.796 428.128 829.116 427.072C829.436 426.016 829.924 425.104 830.58 424.336C831.236 423.552 832.052 422.944 833.028 422.512C834.004 422.064 835.156 421.84 836.484 421.84C837.412 421.84 838.244 421.952 838.98 422.176C839.732 422.4 840.38 422.72 840.924 423.136C841.484 423.536 841.94 424.024 842.292 424.6C842.644 425.16 842.9 425.784 843.06 426.472H840.948C840.708 425.64 840.188 424.976 839.388 424.48C838.604 423.984 837.612 423.736 836.412 423.736ZM849.015 426.352L849.447 422.032H851.487L851.031 426.352H854.295L854.775 422.032H856.791L856.335 426.352H858.639V428.248H856.119L855.639 432.784H857.943V434.704H855.423L854.967 439H852.951L853.407 434.704H850.119L849.663 439H847.623L848.103 434.704H845.799V432.784H848.295L848.799 428.248H846.495V426.352H849.015ZM850.311 432.784H853.599L854.103 428.248H850.815L850.311 432.784ZM863.135 439.048C862.719 439.016 862.383 438.88 862.127 438.64C861.871 438.4 861.743 438.08 861.743 437.68C861.759 437.264 861.903 436.936 862.175 436.696C862.463 436.44 862.791 436.312 863.159 436.312C863.623 436.312 863.991 436.48 864.263 436.816C864.551 437.152 864.695 437.624 864.695 438.232C864.695 438.568 864.623 438.936 864.479 439.336C864.351 439.752 864.175 440.128 863.951 440.464C863.727 440.8 863.463 441.096 863.159 441.352C862.871 441.608 862.567 441.792 862.247 441.904L861.671 441.112C861.991 440.888 862.287 440.584 862.559 440.2C862.847 439.816 863.039 439.432 863.135 439.048ZM880.991 423.736C879.983 423.736 879.119 423.92 878.398 424.288C877.695 424.656 877.111 425.152 876.647 425.776C876.199 426.4 875.871 427.12 875.663 427.936C875.455 428.736 875.351 429.576 875.351 430.456C875.351 431.4 875.463 432.288 875.687 433.12C875.911 433.952 876.255 434.68 876.719 435.304C877.183 435.912 877.775 436.4 878.495 436.768C879.215 437.12 880.071 437.296 881.063 437.296C882.263 437.296 883.271 437.048 884.087 436.552C884.903 436.056 885.431 435.392 885.671 434.56H887.951C887.583 435.968 886.807 437.096 885.622 437.944C884.439 438.776 882.903 439.192 881.015 439.192C879.703 439.192 878.559 438.976 877.583 438.544C876.607 438.112 875.791 437.512 875.135 436.744C874.495 435.976 874.015 435.064 873.695 434.008C873.375 432.952 873.215 431.792 873.215 430.528C873.215 429.28 873.375 428.128 873.695 427.072C874.015 426.016 874.503 425.104 875.159 424.336C875.815 423.552 876.631 422.944 877.607 422.512C878.583 422.064 879.735 421.84 881.063 421.84C881.991 421.84 882.823 421.952 883.559 422.176C884.311 422.4 884.959 422.72 885.503 423.136C886.063 423.536 886.519 424.024 886.871 424.6C887.223 425.16 887.479 425.784 887.639 426.472H885.527C885.287 425.64 884.767 424.976 883.967 424.48C883.183 423.984 882.191 423.736 880.991 423.736ZM890.737 429.592H894.265V425.872H896.137V429.592H899.689V431.44H896.137V435.16H894.265V431.44H890.737V429.592ZM903.253 429.592H906.781V425.872H908.653V429.592H912.205V431.44H908.653V435.16H906.781V431.44H903.253V429.592Z" fill="#8F8F8F"/>
</svg>
