<svg width="197" height="18" viewBox="0 0 197 18" fill="none" xmlns="http://www.w3.org/2000/svg">
<path d="M10.8231 0.703369H11.792C19.8013 0.703369 21.7606 5.20323 21.7606 8.60504V9.25096C21.7606 12.6097 19.8228 17.2388 11.792 17.2388H10.8231C2.81376 17.2388 0.854492 12.6097 0.854492 9.25096V8.60504C0.854492 5.20323 2.81376 0.703369 10.8231 0.703369ZM16.3995 9.05718V8.77729C16.3995 7.03332 15.5813 4.70803 11.3183 4.70803C7.03373 4.70803 6.21557 7.03332 6.21557 8.77729V9.05718C6.21557 10.8011 7.11985 13.191 11.3183 13.191C15.5813 13.191 16.3995 10.8011 16.3995 9.05718Z" fill="black"/>
<path d="M29.6981 16.9804V5.00946H23.3896V0.961735H41.1307V5.00946H34.8223V16.9804H29.6981Z" fill="black"/>
<path d="M44.0161 16.9804V0.961735H49.1619V6.75343H57.6665V0.961735H62.8122V16.9804H57.6665V10.7366H49.1619V16.9804H44.0161Z" fill="black"/>
<path d="M66.5979 0.961735H81.9491V4.64344H71.7006V6.96873H81.6261V10.7796H71.7006V13.2556H82.0783V16.9804H66.5979V0.961735Z" fill="black"/>
<path d="M90.6249 4.79415V7.82995H96.6749C98.3328 7.82995 98.7418 7.11944 98.7418 6.30129V6.25822C98.7418 5.48313 98.3328 4.79415 96.6749 4.79415H90.6249ZM100.615 9.27249C102.747 9.68157 104.232 10.8442 104.232 13.2556V15.3441C104.232 16.356 104.34 16.6359 104.49 16.8727V16.9804H99.1724C99.1078 16.8727 99.0433 16.5928 99.0433 15.9254V14.5905C99.0433 12.5236 98.2897 11.77 96.029 11.77H90.6249V16.9804H85.4791V0.961735H97.3639C103.328 0.961735 104.103 3.37315 104.103 5.28935V5.48313C104.103 7.61464 102.51 8.86341 100.615 9.27249Z" fill="black"/>
<path d="M122.233 17.2388H121.243C113.427 17.2388 111.597 12.459 111.597 9.25096V8.60504C111.597 5.35395 113.406 0.703369 121.243 0.703369H122.233C129.812 0.703369 131.685 4.29895 131.685 7.18403V7.29169H126.389C126.324 6.88261 125.85 4.72956 121.738 4.72956C117.949 4.72956 116.958 6.90414 116.958 8.75576V9.03565C116.958 10.7796 117.97 13.1695 121.76 13.1695C125.872 13.1695 126.324 10.9949 126.389 10.5643H131.685V10.6935C131.685 13.4063 129.855 17.2388 122.233 17.2388Z" fill="black"/>
<path d="M144.195 0.703369H145.164C153.173 0.703369 155.132 5.20323 155.132 8.60504V9.25096C155.132 12.6097 153.194 17.2388 145.164 17.2388H144.195C136.185 17.2388 134.226 12.6097 134.226 9.25096V8.60504C134.226 5.20323 136.185 0.703369 144.195 0.703369ZM149.771 9.05718V8.77729C149.771 7.03332 148.953 4.70803 144.69 4.70803C140.405 4.70803 139.587 7.03332 139.587 8.77729V9.05718C139.587 10.8011 140.491 13.191 144.69 13.191C148.953 13.191 149.771 10.8011 149.771 9.05718Z" fill="black"/>
<path d="M158.427 16.9804V0.961735H167.255C175.824 0.961735 177.74 5.03099 177.74 8.47586V9.12178C177.74 12.6528 176.147 16.9804 167.276 16.9804H158.427ZM163.573 4.79415V13.1264H166.803C171.884 13.1264 172.379 10.6935 172.379 8.97106V8.84188C172.379 7.18403 171.862 4.79415 166.803 4.79415H163.573Z" fill="black"/>
<path d="M180.993 0.961735H196.344V4.64344H186.096V6.96873H196.021V10.7796H186.096V13.2556H196.474V16.9804H180.993V0.961735Z" fill="black"/>
</svg>
